<svg xmlns="http://www.w3.org/2000/svg" xmlns:xlink="http://www.w3.org/1999/xlink" viewBox="0 0 383.92 454.84"><defs><style>.cls-1{fill:#22d0f3;}.cls-2{fill:url(#linear-gradient);}.cls-3{fill:url(#linear-gradient-2);}.cls-4{fill:#12e2a4;}</style><linearGradient id="linear-gradient" x1="338.53" y1="138.84" x2="340.5" y2="138.84" gradientUnits="userSpaceOnUse"><stop offset="0" stop-color="#00c79e"/><stop offset="0.99" stop-color="#42dd8f"/></linearGradient><linearGradient id="linear-gradient-2" x1="339.21" y1="138.84" x2="340.63" y2="138.84" xlink:href="#linear-gradient"/></defs><g id="Layer_2" data-name="Layer 2"><g id="Layer_1-2" data-name="Layer 1"><path class="cls-1" d="M219.74,429.11,263,442.44a1.33,1.33,0,0,1-.18,2.59l-44.69,7.22a179,179,0,0,1-22.9,2.53c-1.49,0-3,.06-4.47.06a171,171,0,0,1-69.06-14.92c-24-10.54-45.63-26.86-64.48-48.57A222.66,222.66,0,0,1,14.7,317.22,266.58,266.58,0,0,1,0,232.5a273.29,273.29,0,0,1,12.87-85.44A232.06,232.06,0,0,1,53.74,70.79C72.11,48.13,93.41,30.67,117,18.88S165.21.74,190.05.06c1.51,0,3-.06,4.58-.06a164.71,164.71,0,0,1,46.55,6.76c.77.21,1.58.42,2.35.66l43.61,13.24a1.34,1.34,0,0,1-.17,2.6l-45,7.32a150.93,150.93,0,0,0-43.6,14.48C177.78,55.33,159.16,70.67,143,90.65a208.19,208.19,0,0,0-36.69,68.47A242.83,242.83,0,0,0,94.6,236.64a247.15,247.15,0,0,0,13.34,77.7,196.86,196.86,0,0,0,38.21,66c1,1.22,2.11,2.38,3.13,3.51,1.87,2,3.93,4.17,6.46,6.73a152.3,152.3,0,0,0,46.34,31.93A167.62,167.62,0,0,0,219.74,429.11Z"/><path class="cls-2" d="M339,138.15c-.15-.15-.3-.33-.45-.47.66.77,1.34,1.55,2,2.32C340,139.37,339.52,138.75,339,138.15Z"/><path class="cls-3" d="M340.5,140c-.63-.77-1.31-1.55-2-2.32.15.14.3.32.45.47C339.52,138.75,340,139.37,340.5,140Z"/><path class="cls-4" d="M374.54,176.54A140.2,140.2,0,0,0,348,130.35l-.26-.33-.21-.21c-.57-.65-1.16-1.34-1.82-2a115.65,115.65,0,0,0-38.18-28,107.12,107.12,0,0,0-43.33-9.47c-.89,0-1.76,0-2.62,0a104.06,104.06,0,0,0-30.17,5.34l-24.8,8.22a1.34,1.34,0,0,0-.16,2.47L230,117.72a93.87,93.87,0,0,1,29.84,23.35,115.54,115.54,0,0,1,22,38.36,143.78,143.78,0,0,1,8,44.79,140.59,140.59,0,0,1-6.61,45.09,120,120,0,0,1-21.2,39.58c-9.3,11.49-20,20.28-31.69,26.11a86.92,86.92,0,0,1-12.15,5,.11.11,0,0,1-.09,0l-27.78,7.13a1.33,1.33,0,0,0-.25,2.49l26.15,12.56c.9.45,1.82.9,2.71,1.28a107.09,107.09,0,0,0,43.66,9.5c.89,0,1.79,0,2.65,0a108.52,108.52,0,0,0,45.92-11.76c14.72-7.33,28.06-18.25,39.55-32.43a144,144,0,0,0,25.41-47.38,164.53,164.53,0,0,0,7.74-52.71A168.69,168.69,0,0,0,374.54,176.54Z"/></g></g></svg>