<svg xmlns="http://www.w3.org/2000/svg" xmlns:xlink="http://www.w3.org/1999/xlink" viewBox="0 0 756.82 198.03"><defs><style>.cls-1{fill:#22d0f3;}.cls-2{fill:url(#linear-gradient);}.cls-3{fill:url(#linear-gradient-2);}.cls-4{fill:#12e2a4;}.cls-5{fill:#073356;}</style><linearGradient id="linear-gradient" x1="135.15" y1="55.43" x2="135.93" y2="55.43" gradientUnits="userSpaceOnUse"><stop offset="0" stop-color="#00c79e"/><stop offset="0.99" stop-color="#42dd8f"/></linearGradient><linearGradient id="linear-gradient-2" x1="135.42" y1="55.43" x2="135.99" y2="55.43" xlink:href="#linear-gradient"/></defs><g id="Layer_2" data-name="Layer 2"><g id="Layer_1-2" data-name="Layer 1"><path class="cls-1" d="M87.72,171.31,105,176.63a.54.54,0,0,1-.07,1l-17.84,2.88a73.42,73.42,0,0,1-9.14,1l-1.78,0a68.43,68.43,0,0,1-27.58-6,73.34,73.34,0,0,1-25.74-19.4,88.82,88.82,0,0,1-17-29.59A106.27,106.27,0,0,1,0,92.82,109,109,0,0,1,5.14,58.71,92.88,92.88,0,0,1,21.45,28.26,76.94,76.94,0,0,1,46.71,7.54,69.21,69.21,0,0,1,75.87,0L77.7,0A65.62,65.62,0,0,1,96.28,2.7l.94.26,17.41,5.29a.54.54,0,0,1-.07,1l-18,2.92A60,60,0,0,0,79.2,18a66.83,66.83,0,0,0-22.1,18.2A83.1,83.1,0,0,0,42.45,63.52a97,97,0,0,0-4.68,30.95,98.49,98.49,0,0,0,5.32,31,78.5,78.5,0,0,0,15.26,26.36c.41.48.84,1,1.24,1.4.75.81,1.57,1.66,2.58,2.69a60.89,60.89,0,0,0,18.5,12.74A67.81,67.81,0,0,0,87.72,171.31Z"/><path class="cls-2" d="M135.33,55.15l-.18-.19c.26.31.53.62.78.93C135.74,55.64,135.54,55.39,135.33,55.15Z"/><path class="cls-3" d="M135.93,55.89c-.25-.31-.52-.62-.78-.93l.18.19C135.54,55.39,135.74,55.64,135.93,55.89Z"/><path class="cls-4" d="M149.52,70.48A56,56,0,0,0,138.92,52l-.11-.13-.08-.09L138,51a46.09,46.09,0,0,0-15.24-11.16,42.71,42.71,0,0,0-17.3-3.78h-1a41.76,41.76,0,0,0-12,2.13l-9.9,3.28a.53.53,0,0,0-.06,1L91.8,47a37.36,37.36,0,0,1,11.91,9.32,45.91,45.91,0,0,1,8.8,15.31,57.48,57.48,0,0,1,3.21,17.88,56,56,0,0,1-2.64,18,47.73,47.73,0,0,1-8.46,15.8A38.36,38.36,0,0,1,92,133.74a35.82,35.82,0,0,1-4.85,2h0L76,138.61a.53.53,0,0,0-.1,1l10.44,5c.36.18.73.36,1.08.51a42.83,42.83,0,0,0,17.43,3.79h1.06a43.45,43.45,0,0,0,18.33-4.7A47.82,47.82,0,0,0,140,131.27a57.45,57.45,0,0,0,10.14-18.92,65.61,65.61,0,0,0,3.1-21A67.33,67.33,0,0,0,149.52,70.48Z"/><path class="cls-5" d="M191.31,152.75V26.8h84V47.09h-61V81.91h53.43V102.2H214.3v50.55Z"/><path class="cls-5" d="M321.32,154.78a49.13,49.13,0,0,1-24.6-6.25,46.74,46.74,0,0,1-24.09-41.76,46.84,46.84,0,0,1,24-41.76,51.45,51.45,0,0,1,49.19,0,47.69,47.69,0,0,1,17.5,17,46.82,46.82,0,0,1,6.51,24.77,46.51,46.51,0,0,1-6.59,24.68,48.34,48.34,0,0,1-41.93,23.33Zm0-20.29a24.12,24.12,0,0,0,13.1-3.55,24.91,24.91,0,0,0,9-9.89,30.42,30.42,0,0,0,3.3-14.28,29.87,29.87,0,0,0-3.3-14.29,25.91,25.91,0,0,0-9-9.8A23.67,23.67,0,0,0,321.32,79,24.41,24.41,0,0,0,308,82.68a25.72,25.72,0,0,0-9,9.8,29.87,29.87,0,0,0-3.3,14.29,30.42,30.42,0,0,0,3.3,14.28,24.18,24.18,0,0,0,22.4,13.44Z"/><path class="cls-5" d="M376.43,152.75v-92H428V80.56H398.58v72.19Z"/><path class="cls-5" d="M422.08,152.75V134.66l61-87.57H425.63V26.8h86.73V44.89L451.5,132.46h62.55v20.29Z"/><path class="cls-5" d="M560,154.78q-14.19,0-24.85-6.42a44.83,44.83,0,0,1-16.57-17.42,50.54,50.54,0,0,1-5.91-24.34,49.58,49.58,0,0,1,6-24.6,45.2,45.2,0,0,1,16.4-17,44.21,44.21,0,0,1,23.24-6.26,47.66,47.66,0,0,1,19,3.55,40.58,40.58,0,0,1,13.95,9.81A43.91,43.91,0,0,1,600.1,86.4a48.45,48.45,0,0,1,3,17.32,49.17,49.17,0,0,1-.26,4.91A18.28,18.28,0,0,1,602,113H531V96.12h58.5L579,104.06a25.24,25.24,0,0,0-.76-13.86,19.84,19.84,0,0,0-7.44-9.64A21.43,21.43,0,0,0,558.34,77,22.39,22.39,0,0,0,546,80.48a21.43,21.43,0,0,0-8.2,10.14q-2.79,6.69-2.11,16.15a29.94,29.94,0,0,0,2.28,15,22.21,22.21,0,0,0,8.79,10.06,25.31,25.31,0,0,0,13.44,3.55,24.64,24.64,0,0,0,12.94-3.21,23.08,23.08,0,0,0,8.36-8.63l17.93,8.8A31.45,31.45,0,0,1,591,144a42.34,42.34,0,0,1-13.61,7.95A50.29,50.29,0,0,1,560,154.78Z"/><path class="cls-5" d="M609.74,152.75v-92H661.3V80.56H631.89v72.19Z"/><path class="cls-5" d="M708.3,154.78a49.13,49.13,0,0,1-24.6-6.25,46.74,46.74,0,0,1-24.09-41.76,47,47,0,0,1,6.51-24.69A47.52,47.52,0,0,1,683.62,65a51.47,51.47,0,0,1,49.2,0,47.74,47.74,0,0,1,17.49,17,46.82,46.82,0,0,1,6.51,24.77,46.42,46.42,0,0,1-6.59,24.68,48.31,48.31,0,0,1-41.93,23.33Zm0-20.29a24.15,24.15,0,0,0,13.11-3.55,25,25,0,0,0,9-9.89,30.54,30.54,0,0,0,3.29-14.28,30,30,0,0,0-3.29-14.29,26,26,0,0,0-9-9.8A23.71,23.71,0,0,0,708.3,79,24.38,24.38,0,0,0,695,82.68a25.66,25.66,0,0,0-9.05,9.8,29.87,29.87,0,0,0-3.3,14.29,30.42,30.42,0,0,0,3.3,14.28,24.21,24.21,0,0,0,22.4,13.44Z"/><path class="cls-5" d="M589.78,173.57h4.92V197.5h-4.92v-4a9.29,9.29,0,0,1-8.36,4.53,10.14,10.14,0,0,1-7.94-3.51,14.47,14.47,0,0,1,0-18,10.11,10.11,0,0,1,7.88-3.53,9.35,9.35,0,0,1,8.4,4.62Zm-7.31,19.76a7,7,0,0,0,5.27-2.18,8.59,8.59,0,0,0,0-11.21,7,7,0,0,0-5.27-2.2,6.69,6.69,0,0,0-5.14,2.18,8.88,8.88,0,0,0,0,11.23A6.69,6.69,0,0,0,582.47,193.33Z"/><path class="cls-5" d="M611.11,198a12,12,0,0,1-8.86-3.57,12.5,12.5,0,0,1,8.9-21.42,12.34,12.34,0,0,1,7.66,2.51,10.49,10.49,0,0,1,4.09,6.72h-5.09a6,6,0,0,0-2.48-3.44,7.38,7.38,0,0,0-4.18-1.22,7.1,7.1,0,0,0-5.4,2.22,8.86,8.86,0,0,0,0,11.41,7,7,0,0,0,5.36,2.22,7.12,7.12,0,0,0,4.2-1.27,6.45,6.45,0,0,0,2.5-3.43h5.09a10.71,10.71,0,0,1-4.13,6.79A12.46,12.46,0,0,1,611.11,198Z"/><path class="cls-5" d="M643.79,192.28l.87,4a13.06,13.06,0,0,1-6.83,1.74,8.47,8.47,0,0,1-6.31-2.48q-2.44-2.49-2.44-7.23V178.18h-4.44v-4.61h4.44v-5.45L634,167v6.53h9.84v4.61H634v9.88q0,5.4,4.7,5.4A17.13,17.13,0,0,0,643.79,192.28Z"/><path class="cls-5" d="M673.21,173a8.22,8.22,0,0,1,6.34,2.48,9.8,9.8,0,0,1,2.28,6.88v15.1h-4.92V183.4q0-5.66-5.22-5.66a6,6,0,0,0-4.81,1.94,8.06,8.06,0,0,0-1.67,5.42v12.4h-4.92V173.57h4.92v4A8.81,8.81,0,0,1,673.21,173Z"/><path class="cls-5" d="M698,173a12.26,12.26,0,1,1-8.79,3.57A12,12,0,0,1,698,173Zm5.29,6.9a7.46,7.46,0,0,0-10.58,0,8.41,8.41,0,0,0,0,11.21,7.56,7.56,0,0,0,10.62,0,8.38,8.38,0,0,0,0-11.21Z"/><path class="cls-5" d="M741.85,173.57h4.92l-6.83,23.93h-5.75l-2.3-8.05-2.4-10.92h-.78l-2.4,10.92L724,197.5h-5.75l-6.83-23.93h4.87l2.14,7.53,2.78,11.22L724,181.1l2.13-7.53h5.92l2.09,7.53,2.78,11.14,2.83-11.14Z"/><path class="cls-5" d="M751.32,192.72a3.11,3.11,0,0,1,2.28-.87,3.22,3.22,0,0,1,2.31.87,3.16,3.16,0,0,1,0,4.44,3.22,3.22,0,0,1-2.31.87,3.11,3.11,0,0,1-2.28-.87,3.21,3.21,0,0,1,0-4.44ZM756.08,167v11l-.3,9.92h-4.31l-.35-9.92V167Z"/></g></g></svg>